<?xml version="1.0" standalone="no"?>
<!DOCTYPE svg PUBLIC "-//W3C//DTD SVG 20010904//EN"
 "http://www.w3.org/TR/2001/REC-SVG-20010904/DTD/svg10.dtd">
<svg version="1.0" xmlns="http://www.w3.org/2000/svg"
 width="512.000000pt" height="512.000000pt" viewBox="0 0 512.000000 512.000000"
 preserveAspectRatio="xMidYMid meet">
<metadata>
Created by potrace 1.16, written by Peter Selinger 2001-2019
</metadata>
<g transform="translate(0.000000,512.000000) scale(0.100000,-0.100000)"
fill="#000000" stroke="none">
<path d="M179 4856 c-59 -21 -104 -53 -132 -93 -37 -55 -47 -87 -47 -156 0
-108 55 -193 150 -236 45 -20 52 -21 2410 -21 l2365 0 50 24 c94 44 144 126
145 234 0 104 -43 179 -132 228 l-53 29 -2360 2 c-1913 2 -2367 0 -2396 -11z"/>
<path d="M165 2804 c-222 -79 -219 -413 4 -489 39 -13 312 -15 2391 -15 2079
0 2352 2 2391 15 226 77 226 413 0 490 -39 13 -312 15 -2395 14 -2014 0 -2357
-3 -2391 -15z"/>
<path d="M145 746 c-94 -44 -144 -126 -145 -234 0 -104 43 -179 132 -228 l53
-29 2375 0 2375 0 53 29 c89 49 132 124 132 228 -1 108 -51 190 -145 234 l-50
24 -2365 0 -2365 0 -50 -24z"/>
</g>
</svg>
